%TF.GenerationSoftware,KiCad,Pcbnew,7.0.10*%
%TF.CreationDate,2024-04-09T17:15:05+02:00*%
%TF.ProjectId,KortsluitingBeperker,4b6f7274-736c-4756-9974-696e67426570,rev?*%
%TF.SameCoordinates,Original*%
%TF.FileFunction,Legend,Top*%
%TF.FilePolarity,Positive*%
%FSLAX46Y46*%
G04 Gerber Fmt 4.6, Leading zero omitted, Abs format (unit mm)*
G04 Created by KiCad (PCBNEW 7.0.10) date 2024-04-09 17:15:05*
%MOMM*%
%LPD*%
G01*
G04 APERTURE LIST*
%ADD10C,0.150000*%
%ADD11C,0.120000*%
G04 APERTURE END LIST*
D10*
X31416666Y-15494819D02*
X31416666Y-16209104D01*
X31416666Y-16209104D02*
X31369047Y-16351961D01*
X31369047Y-16351961D02*
X31273809Y-16447200D01*
X31273809Y-16447200D02*
X31130952Y-16494819D01*
X31130952Y-16494819D02*
X31035714Y-16494819D01*
X32416666Y-16494819D02*
X31845238Y-16494819D01*
X32130952Y-16494819D02*
X32130952Y-15494819D01*
X32130952Y-15494819D02*
X32035714Y-15637676D01*
X32035714Y-15637676D02*
X31940476Y-15732914D01*
X31940476Y-15732914D02*
X31845238Y-15780533D01*
X32204819Y-31218094D02*
X31204819Y-31218094D01*
X31204819Y-31218094D02*
X31204819Y-30979999D01*
X31204819Y-30979999D02*
X31252438Y-30837142D01*
X31252438Y-30837142D02*
X31347676Y-30741904D01*
X31347676Y-30741904D02*
X31442914Y-30694285D01*
X31442914Y-30694285D02*
X31633390Y-30646666D01*
X31633390Y-30646666D02*
X31776247Y-30646666D01*
X31776247Y-30646666D02*
X31966723Y-30694285D01*
X31966723Y-30694285D02*
X32061961Y-30741904D01*
X32061961Y-30741904D02*
X32157200Y-30837142D01*
X32157200Y-30837142D02*
X32204819Y-30979999D01*
X32204819Y-30979999D02*
X32204819Y-31218094D01*
X31300057Y-30265713D02*
X31252438Y-30218094D01*
X31252438Y-30218094D02*
X31204819Y-30122856D01*
X31204819Y-30122856D02*
X31204819Y-29884761D01*
X31204819Y-29884761D02*
X31252438Y-29789523D01*
X31252438Y-29789523D02*
X31300057Y-29741904D01*
X31300057Y-29741904D02*
X31395295Y-29694285D01*
X31395295Y-29694285D02*
X31490533Y-29694285D01*
X31490533Y-29694285D02*
X31633390Y-29741904D01*
X31633390Y-29741904D02*
X32204819Y-30313332D01*
X32204819Y-30313332D02*
X32204819Y-29694285D01*
X49984819Y-31218094D02*
X48984819Y-31218094D01*
X48984819Y-31218094D02*
X48984819Y-30979999D01*
X48984819Y-30979999D02*
X49032438Y-30837142D01*
X49032438Y-30837142D02*
X49127676Y-30741904D01*
X49127676Y-30741904D02*
X49222914Y-30694285D01*
X49222914Y-30694285D02*
X49413390Y-30646666D01*
X49413390Y-30646666D02*
X49556247Y-30646666D01*
X49556247Y-30646666D02*
X49746723Y-30694285D01*
X49746723Y-30694285D02*
X49841961Y-30741904D01*
X49841961Y-30741904D02*
X49937200Y-30837142D01*
X49937200Y-30837142D02*
X49984819Y-30979999D01*
X49984819Y-30979999D02*
X49984819Y-31218094D01*
X49984819Y-29694285D02*
X49984819Y-30265713D01*
X49984819Y-29979999D02*
X48984819Y-29979999D01*
X48984819Y-29979999D02*
X49127676Y-30075237D01*
X49127676Y-30075237D02*
X49222914Y-30170475D01*
X49222914Y-30170475D02*
X49270533Y-30265713D01*
X29043333Y-42194819D02*
X28710000Y-41718628D01*
X28471905Y-42194819D02*
X28471905Y-41194819D01*
X28471905Y-41194819D02*
X28852857Y-41194819D01*
X28852857Y-41194819D02*
X28948095Y-41242438D01*
X28948095Y-41242438D02*
X28995714Y-41290057D01*
X28995714Y-41290057D02*
X29043333Y-41385295D01*
X29043333Y-41385295D02*
X29043333Y-41528152D01*
X29043333Y-41528152D02*
X28995714Y-41623390D01*
X28995714Y-41623390D02*
X28948095Y-41671009D01*
X28948095Y-41671009D02*
X28852857Y-41718628D01*
X28852857Y-41718628D02*
X28471905Y-41718628D01*
X29995714Y-42194819D02*
X29424286Y-42194819D01*
X29710000Y-42194819D02*
X29710000Y-41194819D01*
X29710000Y-41194819D02*
X29614762Y-41337676D01*
X29614762Y-41337676D02*
X29519524Y-41432914D01*
X29519524Y-41432914D02*
X29424286Y-41480533D01*
X22844286Y-26744819D02*
X23415714Y-26744819D01*
X23130000Y-27744819D02*
X23130000Y-26744819D01*
X23749048Y-27744819D02*
X23749048Y-26744819D01*
X23749048Y-27221009D02*
X24320476Y-27221009D01*
X24320476Y-27744819D02*
X24320476Y-26744819D01*
X25320476Y-27744819D02*
X24749048Y-27744819D01*
X25034762Y-27744819D02*
X25034762Y-26744819D01*
X25034762Y-26744819D02*
X24939524Y-26887676D01*
X24939524Y-26887676D02*
X24844286Y-26982914D01*
X24844286Y-26982914D02*
X24749048Y-27030533D01*
D11*
%TO.C,J1*%
X26170000Y-16740000D02*
X28170000Y-16740000D01*
X26170000Y-17990000D02*
X26170000Y-16740000D01*
X26560000Y-17130000D02*
X26560000Y-24600000D01*
X26560000Y-24600000D02*
X36940000Y-24600000D01*
X27710000Y-18090000D02*
X30710000Y-18090000D01*
X27710000Y-19440000D02*
X28460000Y-19440000D01*
X27710000Y-23740000D02*
X27710000Y-19440000D01*
X27960000Y-19090000D02*
X27710000Y-18090000D01*
X28460000Y-19090000D02*
X27960000Y-19090000D01*
X28460000Y-19440000D02*
X28460000Y-19090000D01*
X28460000Y-23740000D02*
X27710000Y-23740000D01*
X29960000Y-19090000D02*
X29960000Y-19440000D01*
X29960000Y-19440000D02*
X30710000Y-19440000D01*
X30460000Y-19090000D02*
X29960000Y-19090000D01*
X30710000Y-18090000D02*
X30460000Y-19090000D01*
X30710000Y-19440000D02*
X30710000Y-23740000D01*
X30710000Y-23740000D02*
X29960000Y-23740000D01*
X32790000Y-18090000D02*
X35790000Y-18090000D01*
X32790000Y-19440000D02*
X33540000Y-19440000D01*
X32790000Y-23740000D02*
X32790000Y-19440000D01*
X33040000Y-19090000D02*
X32790000Y-18090000D01*
X33540000Y-19090000D02*
X33040000Y-19090000D01*
X33540000Y-19440000D02*
X33540000Y-19090000D01*
X33540000Y-23740000D02*
X32790000Y-23740000D01*
X35040000Y-19090000D02*
X35040000Y-19440000D01*
X35040000Y-19440000D02*
X35790000Y-19440000D01*
X35540000Y-19090000D02*
X35040000Y-19090000D01*
X35790000Y-18090000D02*
X35540000Y-19090000D01*
X35790000Y-19440000D02*
X35790000Y-23740000D01*
X35790000Y-23740000D02*
X35040000Y-23740000D01*
X36940000Y-17130000D02*
X26560000Y-17130000D01*
X36940000Y-24600000D02*
X36940000Y-17130000D01*
X29959647Y-23739845D02*
G75*
G03*
X28460000Y-23740000I-749647J-1700155D01*
G01*
X35039647Y-23739845D02*
G75*
G03*
X33540000Y-23740000I-749647J-1700155D01*
G01*
%TO.C,D2*%
X38375000Y-27920000D02*
X35285000Y-27920000D01*
X36829538Y-33469999D02*
G75*
G03*
X38374830Y-27920001I462J2989999D01*
G01*
X35285170Y-27920000D02*
G75*
G03*
X36830462Y-33470000I1544830J-2560000D01*
G01*
X39330000Y-30480000D02*
G75*
G03*
X34330000Y-30480000I-2500000J0D01*
G01*
X34330000Y-30480000D02*
G75*
G03*
X39330000Y-30480000I2500000J0D01*
G01*
%TO.C,D1*%
X42905000Y-33040000D02*
X45995000Y-33040000D01*
X44450462Y-27490001D02*
G75*
G03*
X42905170Y-33039999I-462J-2989999D01*
G01*
X45994830Y-33040000D02*
G75*
G03*
X44449538Y-27490000I-1544830J2560000D01*
G01*
X46950000Y-30480000D02*
G75*
G03*
X41950000Y-30480000I-2500000J0D01*
G01*
X41950000Y-30480000D02*
G75*
G03*
X46950000Y-30480000I2500000J0D01*
G01*
%TO.C,R1*%
X35790000Y-39370000D02*
X32480000Y-39370000D01*
X32480000Y-40740000D02*
X32480000Y-38000000D01*
X32480000Y-38000000D02*
X25940000Y-38000000D01*
X25940000Y-40740000D02*
X32480000Y-40740000D01*
X25940000Y-38000000D02*
X25940000Y-40740000D01*
X22630000Y-39370000D02*
X25940000Y-39370000D01*
%TO.C,TH1*%
X22510000Y-29210000D02*
X25670000Y-29210000D01*
X22510000Y-29210000D02*
G75*
G03*
X20670000Y-29210000I-920000J0D01*
G01*
X20670000Y-29210000D02*
G75*
G03*
X22510000Y-29210000I920000J0D01*
G01*
%TD*%
M02*
