%TF.GenerationSoftware,KiCad,Pcbnew,7.0.10*%
%TF.CreationDate,2024-04-09T17:15:35+02:00*%
%TF.ProjectId,KortsluitingBeperker,4b6f7274-736c-4756-9974-696e67426570,rev?*%
%TF.SameCoordinates,Original*%
%TF.FileFunction,Drillmap*%
%TF.FilePolarity,Positive*%
%FSLAX45Y45*%
G04 Gerber Fmt 4.5, Leading zero omitted, Abs format (unit mm)*
G04 Created by KiCad (PCBNEW 7.0.10) date 2024-04-09 17:15:35*
%MOMM*%
%LPD*%
G01*
G04 APERTURE LIST*
%ADD10C,0.100000*%
%ADD11C,0.200000*%
%ADD12C,0.270000*%
G04 APERTURE END LIST*
D10*
X1437000Y-1437000D02*
X5254000Y-1437000D01*
X5254000Y-4659000D01*
X1437000Y-4659000D01*
X1437000Y-1437000D01*
D11*
D12*
X1643000Y-1643000D02*
X1913000Y-1913000D01*
X1913000Y-1643000D02*
X1643000Y-1913000D01*
X1643000Y-4183000D02*
X1913000Y-4453000D01*
X1913000Y-4183000D02*
X1643000Y-4453000D01*
X4691000Y-1643000D02*
X4961000Y-1913000D01*
X4961000Y-1643000D02*
X4691000Y-1913000D01*
X4691000Y-4183000D02*
X4961000Y-4453000D01*
X4961000Y-4183000D02*
X4691000Y-4453000D01*
D11*
X1692777Y-4975484D02*
X1692777Y-4775484D01*
X1692777Y-4775484D02*
X1740396Y-4775484D01*
X1740396Y-4775484D02*
X1768967Y-4785008D01*
X1768967Y-4785008D02*
X1788015Y-4804055D01*
X1788015Y-4804055D02*
X1797539Y-4823103D01*
X1797539Y-4823103D02*
X1807062Y-4861198D01*
X1807062Y-4861198D02*
X1807062Y-4889770D01*
X1807062Y-4889770D02*
X1797539Y-4927865D01*
X1797539Y-4927865D02*
X1788015Y-4946912D01*
X1788015Y-4946912D02*
X1768967Y-4965960D01*
X1768967Y-4965960D02*
X1740396Y-4975484D01*
X1740396Y-4975484D02*
X1692777Y-4975484D01*
X1892777Y-4975484D02*
X1892777Y-4842150D01*
X1892777Y-4880246D02*
X1902301Y-4861198D01*
X1902301Y-4861198D02*
X1911824Y-4851674D01*
X1911824Y-4851674D02*
X1930872Y-4842150D01*
X1930872Y-4842150D02*
X1949920Y-4842150D01*
X2016586Y-4975484D02*
X2016586Y-4842150D01*
X2016586Y-4775484D02*
X2007062Y-4785008D01*
X2007062Y-4785008D02*
X2016586Y-4794531D01*
X2016586Y-4794531D02*
X2026110Y-4785008D01*
X2026110Y-4785008D02*
X2016586Y-4775484D01*
X2016586Y-4775484D02*
X2016586Y-4794531D01*
X2140396Y-4975484D02*
X2121348Y-4965960D01*
X2121348Y-4965960D02*
X2111824Y-4946912D01*
X2111824Y-4946912D02*
X2111824Y-4775484D01*
X2245158Y-4975484D02*
X2226110Y-4965960D01*
X2226110Y-4965960D02*
X2216586Y-4946912D01*
X2216586Y-4946912D02*
X2216586Y-4775484D01*
X2473729Y-4975484D02*
X2473729Y-4775484D01*
X2473729Y-4775484D02*
X2540396Y-4918341D01*
X2540396Y-4918341D02*
X2607063Y-4775484D01*
X2607063Y-4775484D02*
X2607063Y-4975484D01*
X2788015Y-4975484D02*
X2788015Y-4870722D01*
X2788015Y-4870722D02*
X2778491Y-4851674D01*
X2778491Y-4851674D02*
X2759444Y-4842150D01*
X2759444Y-4842150D02*
X2721348Y-4842150D01*
X2721348Y-4842150D02*
X2702301Y-4851674D01*
X2788015Y-4965960D02*
X2768967Y-4975484D01*
X2768967Y-4975484D02*
X2721348Y-4975484D01*
X2721348Y-4975484D02*
X2702301Y-4965960D01*
X2702301Y-4965960D02*
X2692777Y-4946912D01*
X2692777Y-4946912D02*
X2692777Y-4927865D01*
X2692777Y-4927865D02*
X2702301Y-4908817D01*
X2702301Y-4908817D02*
X2721348Y-4899293D01*
X2721348Y-4899293D02*
X2768967Y-4899293D01*
X2768967Y-4899293D02*
X2788015Y-4889770D01*
X2883253Y-4842150D02*
X2883253Y-5042150D01*
X2883253Y-4851674D02*
X2902301Y-4842150D01*
X2902301Y-4842150D02*
X2940396Y-4842150D01*
X2940396Y-4842150D02*
X2959443Y-4851674D01*
X2959443Y-4851674D02*
X2968967Y-4861198D01*
X2968967Y-4861198D02*
X2978491Y-4880246D01*
X2978491Y-4880246D02*
X2978491Y-4937389D01*
X2978491Y-4937389D02*
X2968967Y-4956436D01*
X2968967Y-4956436D02*
X2959443Y-4965960D01*
X2959443Y-4965960D02*
X2940396Y-4975484D01*
X2940396Y-4975484D02*
X2902301Y-4975484D01*
X2902301Y-4975484D02*
X2883253Y-4965960D01*
X3064205Y-4956436D02*
X3073729Y-4965960D01*
X3073729Y-4965960D02*
X3064205Y-4975484D01*
X3064205Y-4975484D02*
X3054682Y-4965960D01*
X3054682Y-4965960D02*
X3064205Y-4956436D01*
X3064205Y-4956436D02*
X3064205Y-4975484D01*
X3064205Y-4851674D02*
X3073729Y-4861198D01*
X3073729Y-4861198D02*
X3064205Y-4870722D01*
X3064205Y-4870722D02*
X3054682Y-4861198D01*
X3054682Y-4861198D02*
X3064205Y-4851674D01*
X3064205Y-4851674D02*
X3064205Y-4870722D01*
X1232000Y-5204000D02*
X1432000Y-5404000D01*
X1432000Y-5204000D02*
X1232000Y-5404000D01*
X1683253Y-5214531D02*
X1692777Y-5205008D01*
X1692777Y-5205008D02*
X1711824Y-5195484D01*
X1711824Y-5195484D02*
X1759443Y-5195484D01*
X1759443Y-5195484D02*
X1778491Y-5205008D01*
X1778491Y-5205008D02*
X1788015Y-5214531D01*
X1788015Y-5214531D02*
X1797539Y-5233579D01*
X1797539Y-5233579D02*
X1797539Y-5252627D01*
X1797539Y-5252627D02*
X1788015Y-5281198D01*
X1788015Y-5281198D02*
X1673729Y-5395484D01*
X1673729Y-5395484D02*
X1797539Y-5395484D01*
X1883253Y-5376436D02*
X1892777Y-5385960D01*
X1892777Y-5385960D02*
X1883253Y-5395484D01*
X1883253Y-5395484D02*
X1873729Y-5385960D01*
X1873729Y-5385960D02*
X1883253Y-5376436D01*
X1883253Y-5376436D02*
X1883253Y-5395484D01*
X1959443Y-5195484D02*
X2092777Y-5195484D01*
X2092777Y-5195484D02*
X2007062Y-5395484D01*
X2207063Y-5195484D02*
X2226110Y-5195484D01*
X2226110Y-5195484D02*
X2245158Y-5205008D01*
X2245158Y-5205008D02*
X2254682Y-5214531D01*
X2254682Y-5214531D02*
X2264205Y-5233579D01*
X2264205Y-5233579D02*
X2273729Y-5271674D01*
X2273729Y-5271674D02*
X2273729Y-5319293D01*
X2273729Y-5319293D02*
X2264205Y-5357389D01*
X2264205Y-5357389D02*
X2254682Y-5376436D01*
X2254682Y-5376436D02*
X2245158Y-5385960D01*
X2245158Y-5385960D02*
X2226110Y-5395484D01*
X2226110Y-5395484D02*
X2207063Y-5395484D01*
X2207063Y-5395484D02*
X2188015Y-5385960D01*
X2188015Y-5385960D02*
X2178491Y-5376436D01*
X2178491Y-5376436D02*
X2168967Y-5357389D01*
X2168967Y-5357389D02*
X2159444Y-5319293D01*
X2159444Y-5319293D02*
X2159444Y-5271674D01*
X2159444Y-5271674D02*
X2168967Y-5233579D01*
X2168967Y-5233579D02*
X2178491Y-5214531D01*
X2178491Y-5214531D02*
X2188015Y-5205008D01*
X2188015Y-5205008D02*
X2207063Y-5195484D01*
X2397539Y-5195484D02*
X2416586Y-5195484D01*
X2416586Y-5195484D02*
X2435634Y-5205008D01*
X2435634Y-5205008D02*
X2445158Y-5214531D01*
X2445158Y-5214531D02*
X2454682Y-5233579D01*
X2454682Y-5233579D02*
X2464205Y-5271674D01*
X2464205Y-5271674D02*
X2464205Y-5319293D01*
X2464205Y-5319293D02*
X2454682Y-5357389D01*
X2454682Y-5357389D02*
X2445158Y-5376436D01*
X2445158Y-5376436D02*
X2435634Y-5385960D01*
X2435634Y-5385960D02*
X2416586Y-5395484D01*
X2416586Y-5395484D02*
X2397539Y-5395484D01*
X2397539Y-5395484D02*
X2378491Y-5385960D01*
X2378491Y-5385960D02*
X2368967Y-5376436D01*
X2368967Y-5376436D02*
X2359444Y-5357389D01*
X2359444Y-5357389D02*
X2349920Y-5319293D01*
X2349920Y-5319293D02*
X2349920Y-5271674D01*
X2349920Y-5271674D02*
X2359444Y-5233579D01*
X2359444Y-5233579D02*
X2368967Y-5214531D01*
X2368967Y-5214531D02*
X2378491Y-5205008D01*
X2378491Y-5205008D02*
X2397539Y-5195484D01*
X2549920Y-5395484D02*
X2549920Y-5262150D01*
X2549920Y-5281198D02*
X2559444Y-5271674D01*
X2559444Y-5271674D02*
X2578491Y-5262150D01*
X2578491Y-5262150D02*
X2607063Y-5262150D01*
X2607063Y-5262150D02*
X2626110Y-5271674D01*
X2626110Y-5271674D02*
X2635634Y-5290722D01*
X2635634Y-5290722D02*
X2635634Y-5395484D01*
X2635634Y-5290722D02*
X2645158Y-5271674D01*
X2645158Y-5271674D02*
X2664205Y-5262150D01*
X2664205Y-5262150D02*
X2692777Y-5262150D01*
X2692777Y-5262150D02*
X2711825Y-5271674D01*
X2711825Y-5271674D02*
X2721348Y-5290722D01*
X2721348Y-5290722D02*
X2721348Y-5395484D01*
X2816586Y-5395484D02*
X2816586Y-5262150D01*
X2816586Y-5281198D02*
X2826110Y-5271674D01*
X2826110Y-5271674D02*
X2845158Y-5262150D01*
X2845158Y-5262150D02*
X2873729Y-5262150D01*
X2873729Y-5262150D02*
X2892777Y-5271674D01*
X2892777Y-5271674D02*
X2902301Y-5290722D01*
X2902301Y-5290722D02*
X2902301Y-5395484D01*
X2902301Y-5290722D02*
X2911824Y-5271674D01*
X2911824Y-5271674D02*
X2930872Y-5262150D01*
X2930872Y-5262150D02*
X2959443Y-5262150D01*
X2959443Y-5262150D02*
X2978491Y-5271674D01*
X2978491Y-5271674D02*
X2988015Y-5290722D01*
X2988015Y-5290722D02*
X2988015Y-5395484D01*
X3378491Y-5185960D02*
X3207063Y-5443103D01*
X3635634Y-5195484D02*
X3654682Y-5195484D01*
X3654682Y-5195484D02*
X3673729Y-5205008D01*
X3673729Y-5205008D02*
X3683253Y-5214531D01*
X3683253Y-5214531D02*
X3692777Y-5233579D01*
X3692777Y-5233579D02*
X3702301Y-5271674D01*
X3702301Y-5271674D02*
X3702301Y-5319293D01*
X3702301Y-5319293D02*
X3692777Y-5357389D01*
X3692777Y-5357389D02*
X3683253Y-5376436D01*
X3683253Y-5376436D02*
X3673729Y-5385960D01*
X3673729Y-5385960D02*
X3654682Y-5395484D01*
X3654682Y-5395484D02*
X3635634Y-5395484D01*
X3635634Y-5395484D02*
X3616586Y-5385960D01*
X3616586Y-5385960D02*
X3607063Y-5376436D01*
X3607063Y-5376436D02*
X3597539Y-5357389D01*
X3597539Y-5357389D02*
X3588015Y-5319293D01*
X3588015Y-5319293D02*
X3588015Y-5271674D01*
X3588015Y-5271674D02*
X3597539Y-5233579D01*
X3597539Y-5233579D02*
X3607063Y-5214531D01*
X3607063Y-5214531D02*
X3616586Y-5205008D01*
X3616586Y-5205008D02*
X3635634Y-5195484D01*
X3788015Y-5376436D02*
X3797539Y-5385960D01*
X3797539Y-5385960D02*
X3788015Y-5395484D01*
X3788015Y-5395484D02*
X3778491Y-5385960D01*
X3778491Y-5385960D02*
X3788015Y-5376436D01*
X3788015Y-5376436D02*
X3788015Y-5395484D01*
X3988015Y-5395484D02*
X3873729Y-5395484D01*
X3930872Y-5395484D02*
X3930872Y-5195484D01*
X3930872Y-5195484D02*
X3911825Y-5224055D01*
X3911825Y-5224055D02*
X3892777Y-5243103D01*
X3892777Y-5243103D02*
X3873729Y-5252627D01*
X4111825Y-5195484D02*
X4130872Y-5195484D01*
X4130872Y-5195484D02*
X4149920Y-5205008D01*
X4149920Y-5205008D02*
X4159444Y-5214531D01*
X4159444Y-5214531D02*
X4168967Y-5233579D01*
X4168967Y-5233579D02*
X4178491Y-5271674D01*
X4178491Y-5271674D02*
X4178491Y-5319293D01*
X4178491Y-5319293D02*
X4168967Y-5357389D01*
X4168967Y-5357389D02*
X4159444Y-5376436D01*
X4159444Y-5376436D02*
X4149920Y-5385960D01*
X4149920Y-5385960D02*
X4130872Y-5395484D01*
X4130872Y-5395484D02*
X4111825Y-5395484D01*
X4111825Y-5395484D02*
X4092777Y-5385960D01*
X4092777Y-5385960D02*
X4083253Y-5376436D01*
X4083253Y-5376436D02*
X4073729Y-5357389D01*
X4073729Y-5357389D02*
X4064206Y-5319293D01*
X4064206Y-5319293D02*
X4064206Y-5271674D01*
X4064206Y-5271674D02*
X4073729Y-5233579D01*
X4073729Y-5233579D02*
X4083253Y-5214531D01*
X4083253Y-5214531D02*
X4092777Y-5205008D01*
X4092777Y-5205008D02*
X4111825Y-5195484D01*
X4349920Y-5195484D02*
X4311825Y-5195484D01*
X4311825Y-5195484D02*
X4292777Y-5205008D01*
X4292777Y-5205008D02*
X4283253Y-5214531D01*
X4283253Y-5214531D02*
X4264206Y-5243103D01*
X4264206Y-5243103D02*
X4254682Y-5281198D01*
X4254682Y-5281198D02*
X4254682Y-5357389D01*
X4254682Y-5357389D02*
X4264206Y-5376436D01*
X4264206Y-5376436D02*
X4273729Y-5385960D01*
X4273729Y-5385960D02*
X4292777Y-5395484D01*
X4292777Y-5395484D02*
X4330872Y-5395484D01*
X4330872Y-5395484D02*
X4349920Y-5385960D01*
X4349920Y-5385960D02*
X4359444Y-5376436D01*
X4359444Y-5376436D02*
X4368968Y-5357389D01*
X4368968Y-5357389D02*
X4368968Y-5309770D01*
X4368968Y-5309770D02*
X4359444Y-5290722D01*
X4359444Y-5290722D02*
X4349920Y-5281198D01*
X4349920Y-5281198D02*
X4330872Y-5271674D01*
X4330872Y-5271674D02*
X4292777Y-5271674D01*
X4292777Y-5271674D02*
X4273729Y-5281198D01*
X4273729Y-5281198D02*
X4264206Y-5290722D01*
X4264206Y-5290722D02*
X4254682Y-5309770D01*
X4435634Y-5195484D02*
X4559444Y-5195484D01*
X4559444Y-5195484D02*
X4492777Y-5271674D01*
X4492777Y-5271674D02*
X4521349Y-5271674D01*
X4521349Y-5271674D02*
X4540396Y-5281198D01*
X4540396Y-5281198D02*
X4549920Y-5290722D01*
X4549920Y-5290722D02*
X4559444Y-5309770D01*
X4559444Y-5309770D02*
X4559444Y-5357389D01*
X4559444Y-5357389D02*
X4549920Y-5376436D01*
X4549920Y-5376436D02*
X4540396Y-5385960D01*
X4540396Y-5385960D02*
X4521349Y-5395484D01*
X4521349Y-5395484D02*
X4464206Y-5395484D01*
X4464206Y-5395484D02*
X4445158Y-5385960D01*
X4445158Y-5385960D02*
X4435634Y-5376436D01*
X4635634Y-5195484D02*
X4635634Y-5233579D01*
X4711825Y-5195484D02*
X4711825Y-5233579D01*
X5007063Y-5471674D02*
X4997539Y-5462150D01*
X4997539Y-5462150D02*
X4978491Y-5433579D01*
X4978491Y-5433579D02*
X4968968Y-5414531D01*
X4968968Y-5414531D02*
X4959444Y-5385960D01*
X4959444Y-5385960D02*
X4949920Y-5338341D01*
X4949920Y-5338341D02*
X4949920Y-5300246D01*
X4949920Y-5300246D02*
X4959444Y-5252627D01*
X4959444Y-5252627D02*
X4968968Y-5224055D01*
X4968968Y-5224055D02*
X4978491Y-5205008D01*
X4978491Y-5205008D02*
X4997539Y-5176436D01*
X4997539Y-5176436D02*
X5007063Y-5166912D01*
X5168968Y-5262150D02*
X5168968Y-5395484D01*
X5121349Y-5185960D02*
X5073730Y-5328817D01*
X5073730Y-5328817D02*
X5197539Y-5328817D01*
X5426111Y-5395484D02*
X5426111Y-5195484D01*
X5511825Y-5395484D02*
X5511825Y-5290722D01*
X5511825Y-5290722D02*
X5502301Y-5271674D01*
X5502301Y-5271674D02*
X5483253Y-5262150D01*
X5483253Y-5262150D02*
X5454682Y-5262150D01*
X5454682Y-5262150D02*
X5435634Y-5271674D01*
X5435634Y-5271674D02*
X5426111Y-5281198D01*
X5635634Y-5395484D02*
X5616587Y-5385960D01*
X5616587Y-5385960D02*
X5607063Y-5376436D01*
X5607063Y-5376436D02*
X5597539Y-5357389D01*
X5597539Y-5357389D02*
X5597539Y-5300246D01*
X5597539Y-5300246D02*
X5607063Y-5281198D01*
X5607063Y-5281198D02*
X5616587Y-5271674D01*
X5616587Y-5271674D02*
X5635634Y-5262150D01*
X5635634Y-5262150D02*
X5664206Y-5262150D01*
X5664206Y-5262150D02*
X5683253Y-5271674D01*
X5683253Y-5271674D02*
X5692777Y-5281198D01*
X5692777Y-5281198D02*
X5702301Y-5300246D01*
X5702301Y-5300246D02*
X5702301Y-5357389D01*
X5702301Y-5357389D02*
X5692777Y-5376436D01*
X5692777Y-5376436D02*
X5683253Y-5385960D01*
X5683253Y-5385960D02*
X5664206Y-5395484D01*
X5664206Y-5395484D02*
X5635634Y-5395484D01*
X5816587Y-5395484D02*
X5797539Y-5385960D01*
X5797539Y-5385960D02*
X5788015Y-5366912D01*
X5788015Y-5366912D02*
X5788015Y-5195484D01*
X5968968Y-5385960D02*
X5949920Y-5395484D01*
X5949920Y-5395484D02*
X5911825Y-5395484D01*
X5911825Y-5395484D02*
X5892777Y-5385960D01*
X5892777Y-5385960D02*
X5883253Y-5366912D01*
X5883253Y-5366912D02*
X5883253Y-5290722D01*
X5883253Y-5290722D02*
X5892777Y-5271674D01*
X5892777Y-5271674D02*
X5911825Y-5262150D01*
X5911825Y-5262150D02*
X5949920Y-5262150D01*
X5949920Y-5262150D02*
X5968968Y-5271674D01*
X5968968Y-5271674D02*
X5978491Y-5290722D01*
X5978491Y-5290722D02*
X5978491Y-5309770D01*
X5978491Y-5309770D02*
X5883253Y-5328817D01*
X6054682Y-5385960D02*
X6073730Y-5395484D01*
X6073730Y-5395484D02*
X6111825Y-5395484D01*
X6111825Y-5395484D02*
X6130872Y-5385960D01*
X6130872Y-5385960D02*
X6140396Y-5366912D01*
X6140396Y-5366912D02*
X6140396Y-5357389D01*
X6140396Y-5357389D02*
X6130872Y-5338341D01*
X6130872Y-5338341D02*
X6111825Y-5328817D01*
X6111825Y-5328817D02*
X6083253Y-5328817D01*
X6083253Y-5328817D02*
X6064206Y-5319293D01*
X6064206Y-5319293D02*
X6054682Y-5300246D01*
X6054682Y-5300246D02*
X6054682Y-5290722D01*
X6054682Y-5290722D02*
X6064206Y-5271674D01*
X6064206Y-5271674D02*
X6083253Y-5262150D01*
X6083253Y-5262150D02*
X6111825Y-5262150D01*
X6111825Y-5262150D02*
X6130872Y-5271674D01*
X6207063Y-5471674D02*
X6216587Y-5462150D01*
X6216587Y-5462150D02*
X6235634Y-5433579D01*
X6235634Y-5433579D02*
X6245158Y-5414531D01*
X6245158Y-5414531D02*
X6254682Y-5385960D01*
X6254682Y-5385960D02*
X6264206Y-5338341D01*
X6264206Y-5338341D02*
X6264206Y-5300246D01*
X6264206Y-5300246D02*
X6254682Y-5252627D01*
X6254682Y-5252627D02*
X6245158Y-5224055D01*
X6245158Y-5224055D02*
X6235634Y-5205008D01*
X6235634Y-5205008D02*
X6216587Y-5176436D01*
X6216587Y-5176436D02*
X6207063Y-5166912D01*
X6568968Y-5471674D02*
X6559444Y-5462150D01*
X6559444Y-5462150D02*
X6540396Y-5433579D01*
X6540396Y-5433579D02*
X6530872Y-5414531D01*
X6530872Y-5414531D02*
X6521349Y-5385960D01*
X6521349Y-5385960D02*
X6511825Y-5338341D01*
X6511825Y-5338341D02*
X6511825Y-5300246D01*
X6511825Y-5300246D02*
X6521349Y-5252627D01*
X6521349Y-5252627D02*
X6530872Y-5224055D01*
X6530872Y-5224055D02*
X6540396Y-5205008D01*
X6540396Y-5205008D02*
X6559444Y-5176436D01*
X6559444Y-5176436D02*
X6568968Y-5166912D01*
X6645158Y-5262150D02*
X6645158Y-5395484D01*
X6645158Y-5281198D02*
X6654682Y-5271674D01*
X6654682Y-5271674D02*
X6673730Y-5262150D01*
X6673730Y-5262150D02*
X6702301Y-5262150D01*
X6702301Y-5262150D02*
X6721349Y-5271674D01*
X6721349Y-5271674D02*
X6730872Y-5290722D01*
X6730872Y-5290722D02*
X6730872Y-5395484D01*
X6854682Y-5395484D02*
X6835634Y-5385960D01*
X6835634Y-5385960D02*
X6826111Y-5376436D01*
X6826111Y-5376436D02*
X6816587Y-5357389D01*
X6816587Y-5357389D02*
X6816587Y-5300246D01*
X6816587Y-5300246D02*
X6826111Y-5281198D01*
X6826111Y-5281198D02*
X6835634Y-5271674D01*
X6835634Y-5271674D02*
X6854682Y-5262150D01*
X6854682Y-5262150D02*
X6883253Y-5262150D01*
X6883253Y-5262150D02*
X6902301Y-5271674D01*
X6902301Y-5271674D02*
X6911825Y-5281198D01*
X6911825Y-5281198D02*
X6921349Y-5300246D01*
X6921349Y-5300246D02*
X6921349Y-5357389D01*
X6921349Y-5357389D02*
X6911825Y-5376436D01*
X6911825Y-5376436D02*
X6902301Y-5385960D01*
X6902301Y-5385960D02*
X6883253Y-5395484D01*
X6883253Y-5395484D02*
X6854682Y-5395484D01*
X6978492Y-5262150D02*
X7054682Y-5262150D01*
X7007063Y-5195484D02*
X7007063Y-5366912D01*
X7007063Y-5366912D02*
X7016587Y-5385960D01*
X7016587Y-5385960D02*
X7035634Y-5395484D01*
X7035634Y-5395484D02*
X7054682Y-5395484D01*
X7273730Y-5262150D02*
X7273730Y-5462150D01*
X7273730Y-5271674D02*
X7292777Y-5262150D01*
X7292777Y-5262150D02*
X7330873Y-5262150D01*
X7330873Y-5262150D02*
X7349920Y-5271674D01*
X7349920Y-5271674D02*
X7359444Y-5281198D01*
X7359444Y-5281198D02*
X7368968Y-5300246D01*
X7368968Y-5300246D02*
X7368968Y-5357389D01*
X7368968Y-5357389D02*
X7359444Y-5376436D01*
X7359444Y-5376436D02*
X7349920Y-5385960D01*
X7349920Y-5385960D02*
X7330873Y-5395484D01*
X7330873Y-5395484D02*
X7292777Y-5395484D01*
X7292777Y-5395484D02*
X7273730Y-5385960D01*
X7483253Y-5395484D02*
X7464206Y-5385960D01*
X7464206Y-5385960D02*
X7454682Y-5366912D01*
X7454682Y-5366912D02*
X7454682Y-5195484D01*
X7645158Y-5395484D02*
X7645158Y-5290722D01*
X7645158Y-5290722D02*
X7635634Y-5271674D01*
X7635634Y-5271674D02*
X7616587Y-5262150D01*
X7616587Y-5262150D02*
X7578492Y-5262150D01*
X7578492Y-5262150D02*
X7559444Y-5271674D01*
X7645158Y-5385960D02*
X7626111Y-5395484D01*
X7626111Y-5395484D02*
X7578492Y-5395484D01*
X7578492Y-5395484D02*
X7559444Y-5385960D01*
X7559444Y-5385960D02*
X7549920Y-5366912D01*
X7549920Y-5366912D02*
X7549920Y-5347865D01*
X7549920Y-5347865D02*
X7559444Y-5328817D01*
X7559444Y-5328817D02*
X7578492Y-5319293D01*
X7578492Y-5319293D02*
X7626111Y-5319293D01*
X7626111Y-5319293D02*
X7645158Y-5309770D01*
X7711825Y-5262150D02*
X7788015Y-5262150D01*
X7740396Y-5195484D02*
X7740396Y-5366912D01*
X7740396Y-5366912D02*
X7749920Y-5385960D01*
X7749920Y-5385960D02*
X7768968Y-5395484D01*
X7768968Y-5395484D02*
X7788015Y-5395484D01*
X7930873Y-5385960D02*
X7911825Y-5395484D01*
X7911825Y-5395484D02*
X7873730Y-5395484D01*
X7873730Y-5395484D02*
X7854682Y-5385960D01*
X7854682Y-5385960D02*
X7845158Y-5366912D01*
X7845158Y-5366912D02*
X7845158Y-5290722D01*
X7845158Y-5290722D02*
X7854682Y-5271674D01*
X7854682Y-5271674D02*
X7873730Y-5262150D01*
X7873730Y-5262150D02*
X7911825Y-5262150D01*
X7911825Y-5262150D02*
X7930873Y-5271674D01*
X7930873Y-5271674D02*
X7940396Y-5290722D01*
X7940396Y-5290722D02*
X7940396Y-5309770D01*
X7940396Y-5309770D02*
X7845158Y-5328817D01*
X8111825Y-5395484D02*
X8111825Y-5195484D01*
X8111825Y-5385960D02*
X8092777Y-5395484D01*
X8092777Y-5395484D02*
X8054682Y-5395484D01*
X8054682Y-5395484D02*
X8035634Y-5385960D01*
X8035634Y-5385960D02*
X8026111Y-5376436D01*
X8026111Y-5376436D02*
X8016587Y-5357389D01*
X8016587Y-5357389D02*
X8016587Y-5300246D01*
X8016587Y-5300246D02*
X8026111Y-5281198D01*
X8026111Y-5281198D02*
X8035634Y-5271674D01*
X8035634Y-5271674D02*
X8054682Y-5262150D01*
X8054682Y-5262150D02*
X8092777Y-5262150D01*
X8092777Y-5262150D02*
X8111825Y-5271674D01*
X8188015Y-5471674D02*
X8197539Y-5462150D01*
X8197539Y-5462150D02*
X8216587Y-5433579D01*
X8216587Y-5433579D02*
X8226111Y-5414531D01*
X8226111Y-5414531D02*
X8235634Y-5385960D01*
X8235634Y-5385960D02*
X8245158Y-5338341D01*
X8245158Y-5338341D02*
X8245158Y-5300246D01*
X8245158Y-5300246D02*
X8235634Y-5252627D01*
X8235634Y-5252627D02*
X8226111Y-5224055D01*
X8226111Y-5224055D02*
X8216587Y-5205008D01*
X8216587Y-5205008D02*
X8197539Y-5176436D01*
X8197539Y-5176436D02*
X8188015Y-5166912D01*
M02*
