%TF.GenerationSoftware,KiCad,Pcbnew,7.0.10*%
%TF.CreationDate,2024-04-09T17:15:05+02:00*%
%TF.ProjectId,KortsluitingBeperker,4b6f7274-736c-4756-9974-696e67426570,rev?*%
%TF.SameCoordinates,Original*%
%TF.FileFunction,Copper,L1,Top*%
%TF.FilePolarity,Positive*%
%FSLAX46Y46*%
G04 Gerber Fmt 4.6, Leading zero omitted, Abs format (unit mm)*
G04 Created by KiCad (PCBNEW 7.0.10) date 2024-04-09 17:15:05*
%MOMM*%
%LPD*%
G01*
G04 APERTURE LIST*
G04 Aperture macros list*
%AMRoundRect*
0 Rectangle with rounded corners*
0 $1 Rounding radius*
0 $2 $3 $4 $5 $6 $7 $8 $9 X,Y pos of 4 corners*
0 Add a 4 corners polygon primitive as box body*
4,1,4,$2,$3,$4,$5,$6,$7,$8,$9,$2,$3,0*
0 Add four circle primitives for the rounded corners*
1,1,$1+$1,$2,$3*
1,1,$1+$1,$4,$5*
1,1,$1+$1,$6,$7*
1,1,$1+$1,$8,$9*
0 Add four rect primitives between the rounded corners*
20,1,$1+$1,$2,$3,$4,$5,0*
20,1,$1+$1,$4,$5,$6,$7,0*
20,1,$1+$1,$6,$7,$8,$9,0*
20,1,$1+$1,$8,$9,$2,$3,0*%
G04 Aperture macros list end*
%ADD10C,0.300000*%
%TA.AperFunction,NonConductor*%
%ADD11C,0.300000*%
%TD*%
%TA.AperFunction,ComponentPad*%
%ADD12RoundRect,0.250000X-0.650000X-1.550000X0.650000X-1.550000X0.650000X1.550000X-0.650000X1.550000X0*%
%TD*%
%TA.AperFunction,ComponentPad*%
%ADD13O,1.800000X3.600000*%
%TD*%
%TA.AperFunction,ComponentPad*%
%ADD14R,1.800000X1.800000*%
%TD*%
%TA.AperFunction,ComponentPad*%
%ADD15C,1.800000*%
%TD*%
%TA.AperFunction,ComponentPad*%
%ADD16C,1.600000*%
%TD*%
%TA.AperFunction,ComponentPad*%
%ADD17O,1.600000X1.600000*%
%TD*%
%TA.AperFunction,ComponentPad*%
%ADD18C,1.400000*%
%TD*%
%TA.AperFunction,ComponentPad*%
%ADD19O,1.400000X1.400000*%
%TD*%
%TA.AperFunction,Conductor*%
%ADD20C,0.250000*%
%TD*%
%TA.AperFunction,Conductor*%
%ADD21C,0.400000*%
%TD*%
G04 APERTURE END LIST*
D10*
D11*
X23414510Y-45520828D02*
X23414510Y-44020828D01*
X24271653Y-45520828D02*
X23628796Y-44663685D01*
X24271653Y-44020828D02*
X23414510Y-44877971D01*
X25128796Y-45520828D02*
X24985939Y-45449400D01*
X24985939Y-45449400D02*
X24914510Y-45377971D01*
X24914510Y-45377971D02*
X24843082Y-45235114D01*
X24843082Y-45235114D02*
X24843082Y-44806542D01*
X24843082Y-44806542D02*
X24914510Y-44663685D01*
X24914510Y-44663685D02*
X24985939Y-44592257D01*
X24985939Y-44592257D02*
X25128796Y-44520828D01*
X25128796Y-44520828D02*
X25343082Y-44520828D01*
X25343082Y-44520828D02*
X25485939Y-44592257D01*
X25485939Y-44592257D02*
X25557368Y-44663685D01*
X25557368Y-44663685D02*
X25628796Y-44806542D01*
X25628796Y-44806542D02*
X25628796Y-45235114D01*
X25628796Y-45235114D02*
X25557368Y-45377971D01*
X25557368Y-45377971D02*
X25485939Y-45449400D01*
X25485939Y-45449400D02*
X25343082Y-45520828D01*
X25343082Y-45520828D02*
X25128796Y-45520828D01*
X26271653Y-45520828D02*
X26271653Y-44520828D01*
X26271653Y-44806542D02*
X26343082Y-44663685D01*
X26343082Y-44663685D02*
X26414511Y-44592257D01*
X26414511Y-44592257D02*
X26557368Y-44520828D01*
X26557368Y-44520828D02*
X26700225Y-44520828D01*
X26985939Y-44520828D02*
X27557367Y-44520828D01*
X27200224Y-44020828D02*
X27200224Y-45306542D01*
X27200224Y-45306542D02*
X27271653Y-45449400D01*
X27271653Y-45449400D02*
X27414510Y-45520828D01*
X27414510Y-45520828D02*
X27557367Y-45520828D01*
X27985939Y-45449400D02*
X28128796Y-45520828D01*
X28128796Y-45520828D02*
X28414510Y-45520828D01*
X28414510Y-45520828D02*
X28557367Y-45449400D01*
X28557367Y-45449400D02*
X28628796Y-45306542D01*
X28628796Y-45306542D02*
X28628796Y-45235114D01*
X28628796Y-45235114D02*
X28557367Y-45092257D01*
X28557367Y-45092257D02*
X28414510Y-45020828D01*
X28414510Y-45020828D02*
X28200225Y-45020828D01*
X28200225Y-45020828D02*
X28057367Y-44949400D01*
X28057367Y-44949400D02*
X27985939Y-44806542D01*
X27985939Y-44806542D02*
X27985939Y-44735114D01*
X27985939Y-44735114D02*
X28057367Y-44592257D01*
X28057367Y-44592257D02*
X28200225Y-44520828D01*
X28200225Y-44520828D02*
X28414510Y-44520828D01*
X28414510Y-44520828D02*
X28557367Y-44592257D01*
X29485939Y-45520828D02*
X29343082Y-45449400D01*
X29343082Y-45449400D02*
X29271653Y-45306542D01*
X29271653Y-45306542D02*
X29271653Y-44020828D01*
X30700225Y-44520828D02*
X30700225Y-45520828D01*
X30057367Y-44520828D02*
X30057367Y-45306542D01*
X30057367Y-45306542D02*
X30128796Y-45449400D01*
X30128796Y-45449400D02*
X30271653Y-45520828D01*
X30271653Y-45520828D02*
X30485939Y-45520828D01*
X30485939Y-45520828D02*
X30628796Y-45449400D01*
X30628796Y-45449400D02*
X30700225Y-45377971D01*
X31414510Y-45520828D02*
X31414510Y-44520828D01*
X31414510Y-44020828D02*
X31343082Y-44092257D01*
X31343082Y-44092257D02*
X31414510Y-44163685D01*
X31414510Y-44163685D02*
X31485939Y-44092257D01*
X31485939Y-44092257D02*
X31414510Y-44020828D01*
X31414510Y-44020828D02*
X31414510Y-44163685D01*
X31914511Y-44520828D02*
X32485939Y-44520828D01*
X32128796Y-44020828D02*
X32128796Y-45306542D01*
X32128796Y-45306542D02*
X32200225Y-45449400D01*
X32200225Y-45449400D02*
X32343082Y-45520828D01*
X32343082Y-45520828D02*
X32485939Y-45520828D01*
X34628796Y-44735114D02*
X34843082Y-44806542D01*
X34843082Y-44806542D02*
X34914511Y-44877971D01*
X34914511Y-44877971D02*
X34985939Y-45020828D01*
X34985939Y-45020828D02*
X34985939Y-45235114D01*
X34985939Y-45235114D02*
X34914511Y-45377971D01*
X34914511Y-45377971D02*
X34843082Y-45449400D01*
X34843082Y-45449400D02*
X34700225Y-45520828D01*
X34700225Y-45520828D02*
X34128796Y-45520828D01*
X34128796Y-45520828D02*
X34128796Y-44020828D01*
X34128796Y-44020828D02*
X34628796Y-44020828D01*
X34628796Y-44020828D02*
X34771654Y-44092257D01*
X34771654Y-44092257D02*
X34843082Y-44163685D01*
X34843082Y-44163685D02*
X34914511Y-44306542D01*
X34914511Y-44306542D02*
X34914511Y-44449400D01*
X34914511Y-44449400D02*
X34843082Y-44592257D01*
X34843082Y-44592257D02*
X34771654Y-44663685D01*
X34771654Y-44663685D02*
X34628796Y-44735114D01*
X34628796Y-44735114D02*
X34128796Y-44735114D01*
X36200225Y-45449400D02*
X36057368Y-45520828D01*
X36057368Y-45520828D02*
X35771654Y-45520828D01*
X35771654Y-45520828D02*
X35628796Y-45449400D01*
X35628796Y-45449400D02*
X35557368Y-45306542D01*
X35557368Y-45306542D02*
X35557368Y-44735114D01*
X35557368Y-44735114D02*
X35628796Y-44592257D01*
X35628796Y-44592257D02*
X35771654Y-44520828D01*
X35771654Y-44520828D02*
X36057368Y-44520828D01*
X36057368Y-44520828D02*
X36200225Y-44592257D01*
X36200225Y-44592257D02*
X36271654Y-44735114D01*
X36271654Y-44735114D02*
X36271654Y-44877971D01*
X36271654Y-44877971D02*
X35557368Y-45020828D01*
X36914510Y-44520828D02*
X36914510Y-46020828D01*
X36914510Y-44592257D02*
X37057368Y-44520828D01*
X37057368Y-44520828D02*
X37343082Y-44520828D01*
X37343082Y-44520828D02*
X37485939Y-44592257D01*
X37485939Y-44592257D02*
X37557368Y-44663685D01*
X37557368Y-44663685D02*
X37628796Y-44806542D01*
X37628796Y-44806542D02*
X37628796Y-45235114D01*
X37628796Y-45235114D02*
X37557368Y-45377971D01*
X37557368Y-45377971D02*
X37485939Y-45449400D01*
X37485939Y-45449400D02*
X37343082Y-45520828D01*
X37343082Y-45520828D02*
X37057368Y-45520828D01*
X37057368Y-45520828D02*
X36914510Y-45449400D01*
X38843082Y-45449400D02*
X38700225Y-45520828D01*
X38700225Y-45520828D02*
X38414511Y-45520828D01*
X38414511Y-45520828D02*
X38271653Y-45449400D01*
X38271653Y-45449400D02*
X38200225Y-45306542D01*
X38200225Y-45306542D02*
X38200225Y-44735114D01*
X38200225Y-44735114D02*
X38271653Y-44592257D01*
X38271653Y-44592257D02*
X38414511Y-44520828D01*
X38414511Y-44520828D02*
X38700225Y-44520828D01*
X38700225Y-44520828D02*
X38843082Y-44592257D01*
X38843082Y-44592257D02*
X38914511Y-44735114D01*
X38914511Y-44735114D02*
X38914511Y-44877971D01*
X38914511Y-44877971D02*
X38200225Y-45020828D01*
X39557367Y-45520828D02*
X39557367Y-44520828D01*
X39557367Y-44806542D02*
X39628796Y-44663685D01*
X39628796Y-44663685D02*
X39700225Y-44592257D01*
X39700225Y-44592257D02*
X39843082Y-44520828D01*
X39843082Y-44520828D02*
X39985939Y-44520828D01*
X40485938Y-45520828D02*
X40485938Y-44020828D01*
X40628796Y-44949400D02*
X41057367Y-45520828D01*
X41057367Y-44520828D02*
X40485938Y-45092257D01*
X42271653Y-45449400D02*
X42128796Y-45520828D01*
X42128796Y-45520828D02*
X41843082Y-45520828D01*
X41843082Y-45520828D02*
X41700224Y-45449400D01*
X41700224Y-45449400D02*
X41628796Y-45306542D01*
X41628796Y-45306542D02*
X41628796Y-44735114D01*
X41628796Y-44735114D02*
X41700224Y-44592257D01*
X41700224Y-44592257D02*
X41843082Y-44520828D01*
X41843082Y-44520828D02*
X42128796Y-44520828D01*
X42128796Y-44520828D02*
X42271653Y-44592257D01*
X42271653Y-44592257D02*
X42343082Y-44735114D01*
X42343082Y-44735114D02*
X42343082Y-44877971D01*
X42343082Y-44877971D02*
X41628796Y-45020828D01*
X42985938Y-45520828D02*
X42985938Y-44520828D01*
X42985938Y-44806542D02*
X43057367Y-44663685D01*
X43057367Y-44663685D02*
X43128796Y-44592257D01*
X43128796Y-44592257D02*
X43271653Y-44520828D01*
X43271653Y-44520828D02*
X43414510Y-44520828D01*
D12*
%TO.P,J1,1,Pin_1*%
%TO.N,Net-(J1-Pin_1)*%
X29210000Y-21590000D03*
D13*
%TO.P,J1,2,Pin_2*%
%TO.N,Net-(D1-A)*%
X34290000Y-21590000D03*
%TD*%
D14*
%TO.P,D2,1,K*%
%TO.N,Net-(D1-A)*%
X36830000Y-29210000D03*
D15*
%TO.P,D2,2,A*%
%TO.N,Net-(D1-K)*%
X36830000Y-31750000D03*
%TD*%
D14*
%TO.P,D1,1,K*%
%TO.N,Net-(D1-K)*%
X44450000Y-31750000D03*
D15*
%TO.P,D1,2,A*%
%TO.N,Net-(D1-A)*%
X44450000Y-29210000D03*
%TD*%
D16*
%TO.P,R1,1*%
%TO.N,Net-(D1-K)*%
X36830000Y-39370000D03*
D17*
%TO.P,R1,2*%
%TO.N,Net-(J1-Pin_1)*%
X21590000Y-39370000D03*
%TD*%
D18*
%TO.P,TH1,1*%
%TO.N,Net-(J1-Pin_1)*%
X21590000Y-29210000D03*
D19*
%TO.P,TH1,2*%
%TO.N,Net-(D1-A)*%
X26670000Y-29210000D03*
%TD*%
D20*
%TO.N,Net-(D1-K)*%
X36830000Y-31750000D02*
X36830000Y-39370000D01*
X44450000Y-31750000D02*
X36830000Y-31750000D01*
%TO.N,Net-(D1-A)*%
X36830000Y-29210000D02*
X44450000Y-29210000D01*
X29210000Y-29210000D02*
X26670000Y-29210000D01*
X26670000Y-29210000D02*
X36830000Y-29210000D01*
D21*
X26670000Y-29210000D02*
X34290000Y-21590000D01*
D20*
%TO.N,Net-(J1-Pin_1)*%
X21590000Y-29210000D02*
X21590000Y-39370000D01*
D21*
X29210000Y-21590000D02*
X21590000Y-29210000D01*
%TD*%
M02*
